<svg xmlns="http://www.w3.org/2000/svg" viewBox="0 0 15.62 17.14"><defs><style>.cls-1{fill:gray;}</style></defs><title>Asset 69</title><g id="Layer_2" data-name="Layer 2"><g id="Design"><path class="cls-1" d="M15.62,3.21v.72a.36.36,0,0,1-.1.25.35.35,0,0,1-.26.11H14.2V14.87a2.6,2.6,0,0,1-.52,1.6,1.55,1.55,0,0,1-1.26.67H3.19a1.55,1.55,0,0,1-1.25-.65,2.44,2.44,0,0,1-.52-1.58V4.29H.35A.34.34,0,0,1,.1,4.18.32.32,0,0,1,0,3.93V3.21A.32.32,0,0,1,.1,3a.33.33,0,0,1,.25-.1H3.78L4.56,1a1.53,1.53,0,0,1,.6-.7A1.59,1.59,0,0,1,6,0H9.58a1.59,1.59,0,0,1,.88.29,1.53,1.53,0,0,1,.6.7l.78,1.87h3.42a.34.34,0,0,1,.26.1A.36.36,0,0,1,15.62,3.21ZM12.78,14.87V4.29H2.84V14.87a1.33,1.33,0,0,0,.08.45.82.82,0,0,0,.16.3c0,.06.09.09.11.09h9.23s.06,0,.12-.09a1,1,0,0,0,.16-.3A1.33,1.33,0,0,0,12.78,14.87ZM5.68,6.79v6.42a.34.34,0,0,1-.36.36H4.61a.33.33,0,0,1-.25-.1.34.34,0,0,1-.1-.26V6.79a.34.34,0,0,1,.1-.26.33.33,0,0,1,.25-.1h.71a.34.34,0,0,1,.36.36ZM5.32,2.86h5L9.76,1.55a.26.26,0,0,0-.19-.12H6.06a.26.26,0,0,0-.19.12Zm3.2,3.93v6.42a.34.34,0,0,1-.36.36H7.45a.33.33,0,0,1-.25-.1.34.34,0,0,1-.1-.26V6.79a.34.34,0,0,1,.1-.26.33.33,0,0,1,.25-.1h.71a.34.34,0,0,1,.36.36Zm2.84,0v6.42a.34.34,0,0,1-.36.36h-.71a.32.32,0,0,1-.25-.1.34.34,0,0,1-.1-.26V6.79a.34.34,0,0,1,.1-.26.32.32,0,0,1,.25-.1H11a.34.34,0,0,1,.36.36Z"/></g></g></svg>