<svg xmlns="http://www.w3.org/2000/svg" viewBox="0 0 20.71 19.71"><defs><style>.cls-1{fill:gray;}</style></defs><title>Asset 67</title><g id="Layer_2" data-name="Layer 2"><g id="Design"><path class="cls-1" d="M20.71,19.71H0V12.48a1.5,1.5,0,0,1,3,0v4.23H17.71V12.48a1.5,1.5,0,0,1,3,0Z"/><path class="cls-1" d="M14.58,9.21A.32.32,0,0,0,14.26,9H11.85V1.5a1.5,1.5,0,0,0-3,0V9H6.45a.32.32,0,0,0-.32.21.37.37,0,0,0,0,.39l3.94,4.29a.39.39,0,0,0,.27.11.36.36,0,0,0,.25-.11L14.53,9.6A.37.37,0,0,0,14.58,9.21Z"/></g></g></svg>