<svg xmlns="http://www.w3.org/2000/svg" viewBox="0 0 17.04 17.14"><defs><style>.cls-1{fill:gray;}</style></defs><title>Asset 60</title><g id="Layer_2" data-name="Layer 2"><g id="Design"><path class="cls-1" d="M17,1.43v5a.72.72,0,0,1-.71.71h-5a.68.68,0,0,1-.66-.44.64.64,0,0,1,.16-.77l1.53-1.54A5.64,5.64,0,0,0,6.32,3.31,5.76,5.76,0,0,0,4.5,4.53,5.67,5.67,0,0,0,3.29,6.36a5.68,5.68,0,0,0,0,4.43A5.74,5.74,0,0,0,4.5,12.61a5.6,5.6,0,0,0,1.82,1.22,5.36,5.36,0,0,0,2.2.46A5.62,5.62,0,0,0,11,13.71a5.56,5.56,0,0,0,2-1.65.38.38,0,0,1,.25-.13.37.37,0,0,1,.28.1l1.52,1.54a.34.34,0,0,1,.11.23.38.38,0,0,1-.09.25,8.33,8.33,0,0,1-2.92,2.28,8.44,8.44,0,0,1-3.63.81,8.17,8.17,0,0,1-3.31-.68A8.48,8.48,0,0,1,.68,11.9a8.47,8.47,0,0,1,0-6.65A8.52,8.52,0,0,1,2.5,2.51,8.42,8.42,0,0,1,5.21.68,8.35,8.35,0,0,1,11.67.62a8.51,8.51,0,0,1,2.72,1.75L15.83.93A.63.63,0,0,1,16.6.77.68.68,0,0,1,17,1.43Z"/></g></g></svg>