<svg xmlns="http://www.w3.org/2000/svg" viewBox="0 0 18.62 19.37"><defs><style>.cls-1{fill:gray;}</style></defs><title>Asset 66</title><g id="Layer_2" data-name="Layer 2"><g id="Design"><path class="cls-1" d="M7.42,9.56,4.29,12.72a.25.25,0,0,1-.16.06A.2.2,0,0,1,4,12.72l-.34-.34a.21.21,0,0,1-.07-.16.18.18,0,0,1,.07-.15L6.28,9.4,3.64,6.74a.18.18,0,0,1-.07-.15.21.21,0,0,1,.07-.16L4,6.09A.21.21,0,0,1,4.13,6a.26.26,0,0,1,.16.07L7.42,9.25a.19.19,0,0,1,.07.15A.21.21,0,0,1,7.42,9.56Zm7.26,3.09v.44a.2.2,0,0,1-.06.15.21.21,0,0,1-.15.07H8a.22.22,0,0,1-.16-.07.2.2,0,0,1-.06-.15v-.44a.2.2,0,0,1,.06-.15A.21.21,0,0,1,8,12.44h6.46a.21.21,0,0,1,.21.21Z"/><path class="cls-1" d="M15.9,19.37H2.72A2.72,2.72,0,0,1,0,16.65V2.72A2.72,2.72,0,0,1,2.72,0H15.9a2.72,2.72,0,0,1,2.72,2.72V16.65A2.72,2.72,0,0,1,15.9,19.37ZM2.72,2A.72.72,0,0,0,2,2.72V16.65a.72.72,0,0,0,.72.72H15.9a.72.72,0,0,0,.72-.72V2.72A.72.72,0,0,0,15.9,2Z"/></g></g></svg>