<svg xmlns="http://www.w3.org/2000/svg" viewBox="0 0 20.71 21.07"><defs><style>.cls-1{fill:gray;}</style></defs><title>Asset 63</title><g id="Layer_2" data-name="Layer 2"><g id="Design"><path class="cls-1" d="M20.71,21.07H0V13.84a1.5,1.5,0,0,1,3,0v4.23H17.71V13.84a1.5,1.5,0,1,1,3,0Z"/><path class="cls-1" d="M6.13,4.79A.32.32,0,0,0,6.45,5h2.4v8.86a1.5,1.5,0,0,0,3,0V5h2.41a.33.33,0,0,0,.32-.21.35.35,0,0,0-.06-.39L10.59.11A.4.4,0,0,0,10.32,0a.34.34,0,0,0-.25.11L6.18,4.4A.37.37,0,0,0,6.13,4.79Z"/></g></g></svg>