<svg xmlns="http://www.w3.org/2000/svg" viewBox="0 0 74 102"><title>Asset 3</title><g id="Layer_2" data-name="Layer 2"><g id="Layer_1-2" data-name="Layer 1"><path d="M63.5,82c0-1.19-.91-1.82-2.52-1.82a10.82,10.82,0,0,0-1.52.09v3.67h1.17C62.5,83.91,63.5,83.14,63.5,82Z"/><path d="M60.67,86.46H59.46V90.9a13.12,13.12,0,0,0,1.38,0c1.61,0,3-.6,3-2.26S62.45,86.46,60.67,86.46Z"/><path d="M18.05,80.24a5.52,5.52,0,0,0-1.48.15V85a5.47,5.47,0,0,0,1.2.1c1.89,0,3.06-1,3.06-2.57C20.83,81.11,19.82,80.24,18.05,80.24Z"/><path d="M12.1,18.17H40.36a2,2,0,0,0,0-4H12.1a2,2,0,0,0,0,4Z"/><path d="M74,24.44a2,2,0,0,0-.48-1.29L53.84.68h0a1.75,1.75,0,0,0-.39-.33L53.29.26A1.71,1.71,0,0,0,52.9.09l-.11,0A1.76,1.76,0,0,0,52.33,0H4A4,4,0,0,0,0,4V98a4,4,0,0,0,4,4H70a4,4,0,0,0,4-4V24.67A1.79,1.79,0,0,0,74,24.44Zm-64,69H6.39V77.68H10Zm13-7.22a7.3,7.3,0,0,1-5.12,1.66,8.54,8.54,0,0,1-1.22-.07v5.63H13.05V77.89a28.65,28.65,0,0,1,4.81-.33,7.54,7.54,0,0,1,4.81,1.26,4.57,4.57,0,0,1,1.68,3.64A5,5,0,0,1,22.91,86.2Zm10.44.66v6.56H29.8V87l-5-9.29h4.06l1.62,3.78c.49,1.14.81,2,1.21,3h.05c.35-1,.72-1.89,1.19-3l1.59-3.78h4Zm19.5,6.56H49.11l-3.36-6.07A61,61,0,0,1,43,81.79l-.07,0c.09,2.08.14,4.3.14,6.87v4.74H39.82V77.68H44l3.28,5.76a46.74,46.74,0,0,1,2.56,5.4h.07a59.25,59.25,0,0,1-.3-6.56v-4.6h3.27ZM66,92.16c-1.15.91-3.06,1.42-6.19,1.42a27.37,27.37,0,0,1-3.86-.23V77.89a28,28,0,0,1,4.6-.33,8.65,8.65,0,0,1,4.65.89,3.41,3.41,0,0,1,1.9,3.08,3.55,3.55,0,0,1-2.6,3.36v0a3.94,3.94,0,0,1,3.13,3.88A4.21,4.21,0,0,1,66,92.16Zm4-24.24H4V4H50.33V24.46a2,2,0,0,0,2,2H70Z"/><path d="M10.1,42.49h0a2,2,0,0,0,2,2H58.33a2,2,0,0,0,0-4H12.1A2,2,0,0,0,10.1,42.49Z"/><path d="M58.33,53.67H12.1a2,2,0,1,0,0,4H58.33a2,2,0,0,0,0-4Z"/><path d="M12.1,31.33H40.36a2,2,0,0,0,0-4H12.1a2,2,0,0,0,0,4Z"/></g></g></svg>