<svg xmlns="http://www.w3.org/2000/svg" xmlns:xlink="http://www.w3.org/1999/xlink" version="1.1" x="0px" y="0px" viewBox="0 0 100 125" style="enable-background:new 0 0 100 100;" xml:space="preserve"><style type="text/css">
	.st0{display:none;}
	.st1{display:inline;}
	.st2{fill:none;}
	.st3{fill:#010101;}
	.st4{fill:none;stroke:#000000;stroke-miterlimit:10;}
	.st5{fill:#FFFFFF;}
	.st6{fill:none;stroke:#010101;stroke-miterlimit:10;}
	.st7{fill:none;stroke:#000000;stroke-width:1.5;stroke-linecap:square;stroke-miterlimit:10;stroke-dasharray:0,3;}
	.st8{fill:none;stroke:#FFFFFF;stroke-width:0.25;stroke-miterlimit:10;}
	.st9{fill:none;stroke:#000000;stroke-width:1.2;stroke-miterlimit:10;}
	.st10{fill:none;stroke:#000000;stroke-width:2;stroke-miterlimit:10;}
	.st11{fill:#FFFFFF;stroke:#000000;stroke-width:2;stroke-miterlimit:10;}
	.st12{stroke:#000000;stroke-width:0.75;stroke-miterlimit:10;}
	.st13{fill:none;stroke:#000000;stroke-width:3;stroke-miterlimit:10;}
	.st14{stroke:#000000;stroke-miterlimit:10;}
</style><g><g><polygon class="st2" points="34.3,31 34.3,58.3 50,58.3 52.1,60.2 52.1,33.4 49.7,31   "/><polygon class="st2" points="65.7,46.9 63,43.9 60.7,46.8 60.7,31 56.1,31 53.6,33.4 53.6,60.2 55.8,58.3 71.5,58.3 71.5,31     65.7,31   "/><path class="st3" d="M75.1,32.7h-2.2v-3.1H55.6l-2.7,2.6l-2.7-2.6H32.9v3.1h-2.3l0.1,30.1h44.4L75.1,32.7z M52.1,60.2l-2.2-2H34.3    V31h15.4l2.5,2.5V60.2z M71.5,58.3H55.8l-2.2,2V33.4l2.5-2.5h4.5v-0.9h5.1V31h5.8V58.3z"/><polygon points="63,43.9 65.7,46.9 65.7,31 65.7,30.1 60.7,30.1 60.7,31 60.7,46.8   "/></g><g><rect x="11.6" y="21.2" class="st2" width="82.3" height="47.8"/><path d="M94.2,18.9H11.5c-0.6,0-1.1,0.2-1.5,0.6c-0.4,0.4-0.6,0.9-0.6,1.5v49.1v7.2c0,1.2,0.9,2.1,2.1,2.1H45    c0.8,0,1.3,0.7,1.1,1.5l-0.6,1.7c0,0.1-0.1,0.3-0.2,0.4l-5.4,7v0.2c0,0.6,0.4,1,0.9,1l24-0.1c0.5,0,0.9-0.4,0.9-1v-0.2l-5.7-7    c-0.1-0.1-0.2-0.3-0.2-0.4l-0.5-1.6c-0.2-0.7,0.3-1.4,1.1-1.4h33.7c1.2,0,2.1-1,2.1-2.1V69V21C96.4,19.8,95.4,18.9,94.2,18.9z     M93.9,69H11.6V21.2h82.3V69z"/></g></g><text x="0" y="115" fill="#000000" font-size="5px" font-weight="bold" font-family="'Helvetica Neue', Helvetica, Arial-Unicode, Arial, Sans-serif">Created by MRFA</text><text x="0" y="120" fill="#000000" font-size="5px" font-weight="bold" font-family="'Helvetica Neue', Helvetica, Arial-Unicode, Arial, Sans-serif">from the Noun Project</text></svg>