<svg xmlns="http://www.w3.org/2000/svg" xmlns:xlink="http://www.w3.org/1999/xlink" version="1.1" x="0px" y="0px" viewBox="0 0 100 125" enable-background="new 0 0 100 100" xml:space="preserve"><g><path d="M31.823,14.154l1.235,0.535l-0.104,0.83c-0.473,0.081-0.834,0.492-0.834,0.988c0,0.447,0.292,0.826,0.695,0.954   l-0.75,10.507c-0.031,0.438,0.057,1.138,0.195,1.555l0.609,1.826c0.069,0.208,0.161,0.313,0.252,0.313s0.182-0.104,0.252-0.313   l0.609-1.826c0.139-0.417,0.228-1.118,0.196-1.555l-0.75-10.507c0.402-0.13,0.695-0.507,0.695-0.954   c0-0.496-0.361-0.907-0.835-0.988l-0.096-0.772l2.852,1.235l1.397,0.604v5.392l0.003,0.001l4.613,1.997l3.438,1.488l2.631,1.14   c0.552,0.239,1.279,0.359,2.008,0.359c0.727,0,1.454-0.12,2.007-0.359l2.632-1.14l3.438-1.488l4.61-1.997l0.006-0.002v-5.392   l1.396-0.604l4.222-1.828c1.104-0.478,1.104-1.259,0-1.738L52.143,5.359C51.59,5.12,50.863,5,50.136,5   c-0.729,0-1.456,0.12-2.008,0.359l-16.305,7.057C30.718,12.895,30.718,13.677,31.823,14.154z"/><path d="M72.227,93.148H27.773c-0.511,0-0.926,0.414-0.926,0.926c0,0.511,0.415,0.926,0.926,0.926h44.453   c0.513,0,0.927-0.415,0.927-0.926C73.153,93.563,72.739,93.148,72.227,93.148z"/><path d="M75.407,59.786c-0.015-0.055-0.023-0.108-0.04-0.163c-1.091-3.747-2.53-6.125-3.96-7.65   c-2.352-2.506-4.678-2.703-5.392-2.867c-0.132-0.032-0.264-0.061-0.402-0.087c-0.436-0.4-0.777-0.963-1.046-1.635   c-0.67-1.688-0.87-4.082-0.848-6.462c0.04-4.283,0.79-8.529,0.79-8.529v0c0-0.593-0.013-1.164-0.037-1.72   c-0.006-0.178-0.019-0.346-0.028-0.52c-0.021-0.375-0.046-0.745-0.074-1.103c-0.017-0.19-0.034-0.374-0.055-0.56   c-0.031-0.334-0.07-0.656-0.112-0.973c-0.024-0.176-0.047-0.353-0.073-0.524c-0.05-0.325-0.104-0.643-0.161-0.95   c-0.027-0.139-0.051-0.283-0.079-0.422c-0.083-0.42-0.177-0.827-0.277-1.218c-0.003-0.016-0.007-0.033-0.012-0.049   c-0.055-0.213-0.12-0.409-0.181-0.613l-4.471,1.937l-0.927,0.401c0.291,0.237,0.55,0.508,0.777,0.804   c0.047,0.06,0.09,0.122,0.133,0.183c0.022,0.032,0.047,0.062,0.068,0.093c0.021,0.032,0.04,0.064,0.062,0.096   c0.063,0.097,0.125,0.195,0.183,0.294c0.085,0.146,0.166,0.294,0.241,0.445c0.008,0.015,0.017,0.029,0.023,0.045   c0.013,0.026,0.024,0.052,0.037,0.078c0.079,0.164,0.152,0.33,0.22,0.495c0.022,0.056,0.044,0.111,0.065,0.166   c0.526,1.362,0.678,2.643,0.702,2.882c0.002,0.025,0.002,0.039,0.002,0.039c0.169-0.137,0.342-0.199,0.506-0.17   c0.072,0.011,0.141,0.042,0.202,0.086c0.347,0.248,0.537,0.958,0.512,1.849c-0.008,0.297-0.04,0.614-0.1,0.941   c-0.178,0.991-0.552,1.818-0.959,2.229c-0.2,0.203-0.415,0.303-0.611,0.268c-0.1-0.018-0.185-0.066-0.266-0.139   c-0.966,3.007-2.813,6.006-5.142,7.816c-1.373,1.066-2.914,1.719-4.544,1.719c-1.629,0-3.171-0.653-4.543-1.719   c-2.33-1.81-4.176-4.809-5.142-7.816c-0.081,0.072-0.167,0.121-0.265,0.139c-0.197,0.035-0.411-0.065-0.612-0.268   c-0.407-0.41-0.781-1.237-0.959-2.229c-0.059-0.327-0.091-0.644-0.1-0.941c-0.025-0.891,0.166-1.601,0.512-1.849   c0.063-0.044,0.13-0.075,0.203-0.086c0.164-0.028,0.336,0.033,0.505,0.17c0,0,0-0.013,0.002-0.039   c0.024-0.24,0.176-1.521,0.702-2.882c0.022-0.055,0.043-0.11,0.066-0.166c0.067-0.165,0.141-0.331,0.22-0.495   c0.012-0.026,0.023-0.052,0.036-0.078c0.007-0.016,0.016-0.03,0.023-0.045c0.075-0.15,0.156-0.299,0.242-0.445   c0.058-0.099,0.12-0.197,0.182-0.294c0.021-0.032,0.041-0.064,0.062-0.096c0.022-0.032,0.045-0.061,0.068-0.093   c0.043-0.061,0.086-0.123,0.132-0.183c0.228-0.296,0.487-0.568,0.779-0.805l-0.924-0.4l-4.475-1.937   c-0.061,0.204-0.125,0.4-0.18,0.613c-0.005,0.016-0.009,0.034-0.012,0.049c-0.1,0.391-0.194,0.798-0.277,1.218   c-0.028,0.14-0.052,0.283-0.079,0.422c-0.057,0.308-0.111,0.625-0.161,0.95c-0.026,0.171-0.049,0.348-0.073,0.524   c-0.015,0.111-0.026,0.228-0.039,0.341c-0.026,0.209-0.053,0.416-0.074,0.632c-0.02,0.186-0.037,0.369-0.054,0.56   c-0.016,0.204-0.028,0.417-0.042,0.626c-0.011,0.159-0.024,0.313-0.033,0.476c-0.01,0.173-0.022,0.341-0.028,0.52   c-0.023,0.556-0.037,1.126-0.037,1.72v0c0,0,0.75,4.246,0.79,8.529c0.023,2.38-0.177,4.774-0.847,6.462   c-0.268,0.671-0.611,1.235-1.046,1.635c-0.139,0.026-0.271,0.055-0.403,0.087c-0.714,0.164-3.04,0.361-5.392,2.867   c-1.429,1.525-2.869,3.903-3.96,7.65c-0.012,0.04-0.018,0.081-0.029,0.121c-2.193,0.3-3.891,2.183-3.891,4.456v0.105L21,64.41   l4.07,23.604c0.061,2.431,2.057,4.389,4.501,4.389H70.43c2.445,0,4.441-1.958,4.502-4.389L79,64.41l0.019-0.104V64.2   C79.019,62.022,77.464,60.201,75.407,59.786z M40.689,48.34c0.061-0.022,0.204-0.072,0.394-0.159   c0.077-0.033,0.164-0.076,0.25-0.124c0.758-0.397,1.872-1.227,1.872-2.687h0.001c1.195,1.183,2.528,2.124,3.948,2.687   c0.955,0.38,1.952,0.589,2.976,0.589c0.001,0,0.002,0,0.003,0c0.001,0,0.002,0,0.004,0c1.024,0,2.021-0.209,2.976-0.589   c1.421-0.563,2.753-1.504,3.948-2.687c0.001,0,0.001,0,0.001,0c0,1.459,1.113,2.29,1.872,2.687c0.087,0.047,0.173,0.091,0.25,0.124   c0.19,0.087,0.333,0.137,0.395,0.159c0,0,0,0,0,0.002c-0.045,0.375-0.211,0.734-0.476,1.076c-1.254,1.603-4.771,3.913-8.917,3.913   c-0.018,0-0.035-0.003-0.053-0.003s-0.035,0.003-0.053,0.003c-4.146,0-7.664-2.311-8.917-3.913   c-0.265-0.342-0.431-0.702-0.476-1.076C40.689,48.34,40.689,48.34,40.689,48.34z M73.698,87.898c0,1.806-1.464,3.27-3.269,3.27   H29.571c-1.805,0-3.268-1.464-3.268-3.27L22.216,64.2c0-1.805,1.464-3.269,3.269-3.269h49.03c1.806,0,3.268,1.464,3.268,3.269   L73.698,87.898z"/><circle cx="50.001" cy="75.642" r="1.938"/></g><text x="0" y="115" fill="#000000" font-size="5px" font-weight="bold" font-family="'Helvetica Neue', Helvetica, Arial-Unicode, Arial, Sans-serif">Created by Wilson Joseph</text><text x="0" y="120" fill="#000000" font-size="5px" font-weight="bold" font-family="'Helvetica Neue', Helvetica, Arial-Unicode, Arial, Sans-serif">from the Noun Project</text></svg>