<svg xmlns="http://www.w3.org/2000/svg" width="15.61719" height="17.14307" viewBox="0 0 15.61719 17.14307">
  <title>delet_filesystem</title>
  <g>
    <path d="M10.293,13.57178h.71a.3442.3442,0,0,0,.35547-.35742V6.78564a.34343.34343,0,0,0-.35547-.35693h-.71a.34627.34627,0,0,0-.25488.1001.35044.35044,0,0,0-.09961.25684v6.42871a.34966.34966,0,0,0,.09961.25684A.34474.34474,0,0,0,10.293,13.57178Z" fill="gray"/>
    <path d="M15.51758,2.95752a.344.344,0,0,0-.25488-.10059H11.83545L11.05859.99365a1.54234,1.54234,0,0,0-.59814-.70312A1.5666,1.5666,0,0,0,9.583,0H6.03418a1.55864,1.55864,0,0,0-.876.29053,1.543,1.543,0,0,0-.59961.70313L3.78223,2.85693H.35449a.344.344,0,0,0-.25488.10059A.35044.35044,0,0,0,0,3.21436v.71436a.34775.34775,0,0,0,.09961.25635.3421.3421,0,0,0,.25488.10059H1.41992v10.625a2.45219,2.45219,0,0,0,.52148,1.5791,1.55678,1.55678,0,0,0,1.25293.65332h9.229a1.54346,1.54346,0,0,0,1.25244-.67529,2.54456,2.54456,0,0,0,.522-1.60156V4.28564H15.2627a.3421.3421,0,0,0,.25488-.10059.34775.34775,0,0,0,.09961-.25635V3.21436A.35044.35044,0,0,0,15.51758,2.95752ZM5.86719,1.55127a.31647.31647,0,0,1,.18945-.12256H9.57275a.31576.31576,0,0,1,.18848.12256L10.293,2.85693H5.32422Zm6.91064,13.31494a1.26061,1.26061,0,0,1-.07764.45166,1.01517,1.01517,0,0,1-.16064.30176c-.05518.06348-.09424.09473-.11621.09473h-9.229c-.02246,0-.06055-.03125-.11621-.09473a1.02579,1.02579,0,0,1-.16113-.30176,1.27126,1.27126,0,0,1-.07666-.45166V4.28564h9.9375Z" fill="gray"/>
    <path d="M7.4541,13.57178h.71045a.34268.34268,0,0,0,.35449-.35742V6.78564a.34192.34192,0,0,0-.35449-.35693H7.4541a.3427.3427,0,0,0-.35547.35693v6.42871a.3481.3481,0,0,0,.1001.25684A.34433.34433,0,0,0,7.4541,13.57178Z" fill="gray"/>
    <path d="M4.61475,13.57178h.70947a.344.344,0,0,0,.25488-.10059.34966.34966,0,0,0,.09961-.25684V6.78564a.35044.35044,0,0,0-.09961-.25684.3455.3455,0,0,0-.25488-.1001H4.61475a.34662.34662,0,0,0-.25537.1001.35117.35117,0,0,0-.10059.25684v6.42871a.35039.35039,0,0,0,.10059.25684A.34509.34509,0,0,0,4.61475,13.57178Z" fill="gray"/>
  </g>
</svg>
