<svg xmlns="http://www.w3.org/2000/svg" viewBox="0 0 18.9 18.19"><defs><style>.cls-1{fill:#b2b2b2;}</style></defs><title>Favorite_active</title><g id="Layer_2" data-name="Layer 2"><g id="Design"><path class="cls-1" d="M14,17.19a1,1,0,0,1-.47-.12L9.42,14.88,5.27,17a1,1,0,0,1-.46.12,1,1,0,0,1-.59-.2,1,1,0,0,1-.4-1l.81-4.6L1.3,8.09a1,1,0,0,1,.56-1.7l4.63-.65L8.58,1.55A1,1,0,0,1,9.47,1h0a1,1,0,0,1,.9.56l2.05,4.2L17,6.45a1,1,0,0,1,.55,1.71l-3.36,3.25L15,16a1,1,0,0,1-.4,1A1.06,1.06,0,0,1,14,17.19Z"/><path class="cls-1" d="M9.47,2l2.28,4.67,5.15.77-3.74,3.62L14,16.19,9.42,13.75l-4.61,2.4L5.71,11,2,7.38l5.15-.73L9.47,2m0-2A2,2,0,0,0,7.68,1.11L5.83,4.82,1.72,5.4A2,2,0,0,0,.6,8.81l3,2.9L2.84,15.8a2,2,0,0,0,2.89,2.12L9.41,16,13.07,18a2,2,0,0,0,.94.24,2,2,0,0,0,2-2.33l-.69-4.1,3-2.88a2,2,0,0,0-1.1-3.42l-4.1-.61L11.27,1.12A2,2,0,0,0,9.48,0Z"/></g></g></svg>