<svg xmlns="http://www.w3.org/2000/svg" viewBox="0 0 17.04 18.57"><defs><style>.cls-1{fill:gray;}</style></defs><title>Asset 68</title><g id="Layer_2" data-name="Layer 2"><g id="Design"><path class="cls-1" d="M17,10a8.44,8.44,0,0,1-.68,3.33,8.76,8.76,0,0,1-1.82,2.73,8.46,8.46,0,0,1-2.72,1.83,8.37,8.37,0,0,1-6.61,0A8.42,8.42,0,0,1,2.5,16.06,8.59,8.59,0,0,1,.68,13.33,8.44,8.44,0,0,1,0,10,8.58,8.58,0,0,1,.89,6.17a8.42,8.42,0,0,1,2.52-3,1.38,1.38,0,0,1,1-.28,1.31,1.31,0,0,1,.93.56,1.32,1.32,0,0,1,.27,1.05,1.35,1.35,0,0,1-.55.94,5.93,5.93,0,0,0-1.68,2A5.75,5.75,0,0,0,2.84,10a5.56,5.56,0,0,0,.45,2.21A5.67,5.67,0,0,0,4.5,14a5.76,5.76,0,0,0,1.82,1.22,5.6,5.6,0,0,0,4.4,0,5.66,5.66,0,0,0,3-3A5.56,5.56,0,0,0,14.2,10a5.63,5.63,0,0,0-.6-2.55,5.71,5.71,0,0,0-1.68-2,1.34,1.34,0,0,1-.54-.94,1.32,1.32,0,0,1,.27-1.05,1.31,1.31,0,0,1,.93-.56,1.36,1.36,0,0,1,1.05.28,8.3,8.3,0,0,1,2.51,3A8.46,8.46,0,0,1,17,10ZM9.94,1.43V8.57a1.4,1.4,0,0,1-.42,1,1.38,1.38,0,0,1-1,.42,1.36,1.36,0,0,1-1-.42,1.4,1.4,0,0,1-.42-1V1.43a1.4,1.4,0,0,1,.42-1,1.36,1.36,0,0,1,1-.42,1.38,1.38,0,0,1,1,.42A1.4,1.4,0,0,1,9.94,1.43Z"/></g></g></svg>