<svg xmlns="http://www.w3.org/2000/svg" viewBox="0 0 19.61 18.48"><defs><style>.cls-1{fill:gray;}</style></defs><title>Asset 65</title><g id="Layer_2" data-name="Layer 2"><g id="Design"><path class="cls-1" d="M16.86,18.48H6.57a2.75,2.75,0,0,1-2.75-2.75V6.46A2.76,2.76,0,0,1,6.57,3.7H16.86a2.76,2.76,0,0,1,2.75,2.76v9.27A2.75,2.75,0,0,1,16.86,18.48ZM6.57,5.77a.69.69,0,0,0-.68.69v9.27a.68.68,0,0,0,.68.68H16.86a.68.68,0,0,0,.69-.68V6.46a.69.69,0,0,0-.69-.69Z"/><path class="cls-1" d="M1,15.75a1,1,0,0,1-1-1V3.48A3.48,3.48,0,0,1,3.48,0H15.81a1,1,0,0,1,1,1,1,1,0,0,1-1,1H3.48A1.41,1.41,0,0,0,2.07,3.48V14.72A1,1,0,0,1,1,15.75Z"/></g></g></svg>