<svg xmlns="http://www.w3.org/2000/svg" viewBox="0 0 18.46 18.57"><defs><style>.cls-1{fill:gray;}</style></defs><title>Asset 61</title><g id="Layer_2" data-name="Layer 2"><g id="Design"><path class="cls-1" d="M18.46,17.14A1.43,1.43,0,0,1,17,18.57a1.31,1.31,0,0,1-1-.42l-3.81-3.82a7.55,7.55,0,0,1-4.42,1.38,7.47,7.47,0,0,1-3-.62A7.86,7.86,0,0,1,.62,4.8,7.9,7.9,0,0,1,2.28,2.29,7.77,7.77,0,0,1,4.78.62a7.71,7.71,0,0,1,6.06,0,7.77,7.77,0,0,1,2.5,1.67A7.9,7.9,0,0,1,15,4.8a7.82,7.82,0,0,1,.62,3.06,7.66,7.66,0,0,1-1.38,4.45l3.81,3.83A1.37,1.37,0,0,1,18.46,17.14Zm-7.14-5.75a4.85,4.85,0,0,0,1.46-3.53,4.86,4.86,0,0,0-1.46-3.54A4.79,4.79,0,0,0,7.81,2.86,4.79,4.79,0,0,0,4.3,4.32,4.86,4.86,0,0,0,2.84,7.86,4.85,4.85,0,0,0,4.3,11.39a4.76,4.76,0,0,0,3.51,1.47A4.76,4.76,0,0,0,11.32,11.39Z"/></g></g></svg>