<svg xmlns="http://www.w3.org/2000/svg" xmlns:xlink="http://www.w3.org/1999/xlink" version="1.1" x="0px" y="0px" viewBox="0 0 100 125" enable-background="new 0 0 100 100" xml:space="preserve"><g><path d="M29.887,15.054l1.357,0.587l-0.114,0.912c-0.521,0.089-0.917,0.54-0.917,1.086c0,0.491,0.319,0.907,0.764,1.048   l-0.824,11.54c-0.033,0.481,0.063,1.25,0.216,1.708l0.668,2.006c0.153,0.458,0.401,0.458,0.554,0l0.669-2.006   c0.153-0.458,0.249-1.226,0.215-1.708l-0.823-11.54c0.441-0.144,0.763-0.557,0.763-1.048c0-0.546-0.396-0.997-0.917-1.086   l-0.106-0.847l3.133,1.357l1.535,0.664v5.591c-0.174,0.633-0.324,1.278-0.42,1.942c-0.11,0.756-0.166,1.532-0.166,2.319   c0,0.321,0.014,0.639,0.031,0.953c0.025,0.462,0.069,0.917,0.135,1.367c0.011,0.138,0.022,0.274,0.035,0.411   C36.59,40.673,42.654,48.681,50,48.681s13.41-8.008,14.326-18.373c0.012-0.136,0.024-0.273,0.034-0.411   c0.065-0.45,0.108-0.905,0.136-1.367c0.018-0.314,0.03-0.632,0.03-0.953c0-0.787-0.056-1.563-0.166-2.319   c-0.096-0.664-0.245-1.307-0.419-1.939v-5.594l1.534-0.663l4.637-2.008c1.213-0.525,1.213-1.382,0-1.908L52.204,5.394   c-1.212-0.525-3.195-0.525-4.409,0l-17.908,7.752C28.675,13.671,28.675,14.529,29.887,15.054z M39.234,25.023l1.895,0.82   l6.667,2.887c1.213,0.524,3.197,0.524,4.409,0l6.667-2.887l1.895-0.82c0.379,2.832-0.212,6.346-0.212,6.346   c0.758-0.528,1.45-0.802,2.016-0.944C61.737,39.478,56.428,46.458,50,46.458c-6.427,0-11.737-6.98-12.571-16.034   c0.565,0.142,1.26,0.416,2.015,0.944C39.444,31.368,38.854,27.854,39.234,25.023z"/><path d="M78.948,68.195c0.109-0.726,0.171-1.506,0.171-2.365c0-9.708-7.194-17.734-16.544-19.035   c-0.032-0.004-0.067-0.005-0.101-0.013c-0.269-0.034-0.537-0.065-0.807-0.09c-0.002,0.026-0.01,0.054-0.01,0.082   c-0.005,0.08-0.019,0.157-0.028,0.238c-0.05,0.449-0.184,0.886-0.394,1.308c-1.293,3.253-5.229,9.169-7.949,13.082l-0.784,0.165   l-0.493-7.077c0.785-0.402,1.461-1.07,1.895-1.844c0.312-0.556,0.502-1.164,0.502-1.783c0,0-2.007,0.89-4.056,0.89   c-0.117,0-0.234-0.002-0.351-0.009c-0.117,0.007-0.234,0.009-0.351,0.009c-2.049,0-4.056-0.89-4.056-0.89   c0,0.619,0.19,1.228,0.502,1.783c0.433,0.773,1.109,1.44,1.894,1.844l-0.493,7.077L46.712,61.4   c-2.722-3.912-6.656-9.828-7.948-13.082c-0.21-0.421-0.345-0.858-0.396-1.308c-0.01-0.081-0.022-0.158-0.026-0.238   c-0.001-0.027-0.01-0.055-0.01-0.082c-0.271,0.025-0.54,0.057-0.809,0.09c-0.034,0.007-0.068,0.008-0.1,0.013   c-9.349,1.301-16.543,9.327-16.543,19.035c0,0.859,0.062,1.64,0.171,2.365c-2.023,1.097-3.398,3.234-3.398,5.697v4.169   c0,3.299,2.464,6.016,5.651,6.425c0.118,3.392,2.871,6.125,6.273,6.199l19.137,4.043L50,95l1.285-0.271l19.137-4.043   c3.402-0.074,6.155-2.808,6.273-6.199c3.188-0.409,5.651-3.126,5.651-6.425v-4.169C82.347,71.43,80.972,69.29,78.948,68.195z    M48.715,92.101l-18.86-3.984H29.72c-2.051,0-3.728-1.61-3.845-3.633c3.176-0.421,5.628-3.132,5.628-6.422v-4.169   c0-3.294-2.458-6.01-5.639-6.423v-3.204c0-2.085,1.662-3.788,3.73-3.854l19.12,4.039V92.101z M74.136,67.47   c-3.181,0.413-5.64,3.129-5.64,6.423v4.169c0,3.29,2.453,6.001,5.629,6.422c-0.117,2.022-1.794,3.633-3.845,3.633h-0.135   l-18.86,3.984V64.451l19.12-4.039c2.069,0.065,3.73,1.769,3.73,3.854V67.47z"/></g><text x="0" y="115" fill="#000000" font-size="5px" font-weight="bold" font-family="'Helvetica Neue', Helvetica, Arial-Unicode, Arial, Sans-serif">Created by Wilson Joseph</text><text x="0" y="120" fill="#000000" font-size="5px" font-weight="bold" font-family="'Helvetica Neue', Helvetica, Arial-Unicode, Arial, Sans-serif">from the Noun Project</text></svg>