<svg xmlns="http://www.w3.org/2000/svg" xmlns:xlink="http://www.w3.org/1999/xlink" version="1.1" x="0px" y="0px" viewBox="0 0 64 80" style="enable-background:new 0 0 64 64;" xml:space="preserve"><path d="M61,14H15c-0.553,0-1,0.447-1,1v3h-3c-0.553,0-1,0.447-1,1v3H7c-0.553,0-1,0.447-1,1v3H3c-0.553,0-1,0.447-1,1v34  c0,0.553,0.447,1,1,1h46c0.553,0,1-0.447,1-1v-3h3c0.553,0,1-0.447,1-1v-3h3c0.553,0,1-0.447,1-1v-3h3c0.553,0,1-0.447,1-1V15  C62,14.447,61.553,14,61,14z M48,60H4V36h44V60z M48,34H4v-6h44V34z M52,56h-2V27c0-0.553-0.447-1-1-1H8v-2h44V56z M56,52h-2V23  c0-0.553-0.447-1-1-1H12v-2h44V52z M60,48h-2V19c0-0.553-0.447-1-1-1H16v-2h44V48z"/><rect x="6" y="30" width="2" height="2"/><rect x="10" y="30" width="2" height="2"/><rect x="14" y="30" width="2" height="2"/><path d="M24,58c5.514,0,10-4.486,10-10s-4.486-10-10-10s-10,4.486-10,10S18.486,58,24,58z M24,40c4.411,0,8,3.589,8,8s-3.589,8-8,8  s-8-3.589-8-8S19.589,40,24,40z"/><path d="M20.475,52.851C20.635,52.95,20.817,53,21,53c0.153,0,0.306-0.035,0.447-0.105l8-4C29.786,48.725,30,48.379,30,48  s-0.214-0.725-0.553-0.895l-8-4c-0.311-0.154-0.678-0.14-0.973,0.044C20.18,43.332,20,43.653,20,44v8  C20,52.347,20.18,52.668,20.475,52.851z M22,45.618L26.764,48L22,50.382V45.618z"/><rect x="33" y="10" width="2" height="2"/><rect x="37" y="10" width="2" height="2"/><rect x="41" y="10" width="2" height="2"/><text x="0" y="79" fill="#000000" font-size="5px" font-weight="bold" font-family="'Helvetica Neue', Helvetica, Arial-Unicode, Arial, Sans-serif">Created by Becris</text><text x="0" y="84" fill="#000000" font-size="5px" font-weight="bold" font-family="'Helvetica Neue', Helvetica, Arial-Unicode, Arial, Sans-serif">from the Noun Project</text></svg>